<svg width="64" height="64" viewBox="0 0 64 64" fill="none" xmlns="http://www.w3.org/2000/svg">
  <rect width="64" height="64" rx="12" fill="#0F172A"/>
  <path d="M32 18C36.4183 18 40 21.5817 40 26C40 30.4183 36.4183 34 32 34C27.5817 34 24 30.4183 24 26C24 21.5817 27.5817 18 32 18Z" fill="#38BDF8"/>
  <path d="M16 44C16 37.3726 21.3726 32 28 32H36C42.6274 32 48 37.3726 48 44C48 46.2091 46.2091 48 44 48H20C17.7909 48 16 46.2091 16 44Z" fill="#60A5FA"/>
  <path d="M47 20H49C50.1046 20 51 20.8954 51 22V24C51 25.1046 50.1046 26 49 26H47V20Z" fill="#A5F3FC"/>
  <path d="M13 20H15V26H13C11.8954 26 11 25.1046 11 24V22C11 20.8954 11.8954 20 13 20Z" fill="#A5F3FC"/>
</svg>