<svg width="600" height="600" viewBox="0 0 600 600" fill="none" xmlns="http://www.w3.org/2000/svg">
  <defs>
    <linearGradient id="greenGrad" x1="0" y1="0" x2="1" y2="1">
      <stop offset="0%" stop-color="#34d399"/>
      <stop offset="100%" stop-color="#059669"/>
    </linearGradient>
  </defs>
  <!-- outer ribbon -->
  <path d="M300 90 C 430 90 520 180 520 300 C 520 420 430 510 300 510 C 170 510 80 420 80 300 C 80 180 170 90 300 90 Z" stroke="url(#greenGrad)" stroke-width="26" stroke-linecap="round" stroke-linejoin="round" fill="none" opacity="0.25"/>
  <!-- mid ribbon -->
  <path d="M300 130 C 400 110 490 220 480 310 C 470 410 400 490 300 470 C 200 450 110 340 120 250 C 130 160 200 120 300 130 Z" stroke="url(#greenGrad)" stroke-width="14" stroke-linecap="round" stroke-linejoin="round" fill="none" opacity="0.3"/>
  <!-- inner ribbon -->
  <path d="M300 170 C 370 170 430 230 430 300 C 430 370 370 430 300 430 C 230 430 170 370 170 300 C 170 230 230 170 300 170 Z" stroke="url(#greenGrad)" stroke-width="6" stroke-linecap="round" stroke-linejoin="round" fill="none" opacity="0.4"/>
</svg> 